<svg xmlns="http://www.w3.org/2000/svg" version="1.1" viewBox="-5.0 -10.0 110.0 135.0">
 <path d="m96.168 42.211c-1.9453 7.2344-7.4922 10.586-13.68 6.7383-3.1719-1.9727-5.9492-5.6836-10.523-8.1992-0.003906 0.24609-0.007813 0.48438-0.019532 0.71875 0.54688 1.3203 1.0312 2.5938 1.5 3.8281 1.6797 4.4102 3.1328 8.2227 6.168 10.586 0.11328 0.089844 0.20312 0.20313 0.25391 0.33594 1.3906 3.4844 2.4766 5.9609 3.2227 7.375 0.046875 0.09375 0.078125 0.19531 0.089844 0.30078 0.20703 2.1953-0.03125 4.0703-0.70313 5.5703-0.12891 0.28906-0.41016 0.47266-0.72656 0.47656-4.1484 0.0625-3.2266-4.375-3.2266-4.3789-1.5586-2.6406-2.625-4.3438-4.2031-5.5312-2.7461-2.0664-5.3086-3.5117-7.793-4.3906-0.035156 1.707 1.125 3.0312 1.5781 3.4844 0.16797 0.16797 0.25391 0.39844 0.23438 0.63672-0.19141 2.4258-3.2578 6.8203-5.0703 9.2266-0.10547 0.14062-0.25391 0.24219-0.42578 0.28906-1.4141 0.40234-4.2852 0.42578-5.8867 0.003906-0.29297-0.078125-0.51562-0.30859-0.58594-0.60547-0.59375-2.6328 0.73438-3.9258 3.3945-3.3711 0.92578-1.2344 1.5391-2.4219 1.8203-3.543-1.375-2.0312-2.707-4.0117-3.8789-5.9766-5.0586 1.918-10.883 0.88672-16.277-0.019531-0.007813 0.93359-0.039063 8.4492-0.10547 8.7031-0.4375 1.6992-0.97656 3.1289-1.6016 4.2539-0.13672 0.25-0.39453 0.40625-0.67969 0.41406-1.6641 0.054687-3.4062-0.023438-5.457-0.17188-0.36719-0.027344-0.67188-0.29688-0.73828-0.66016-0.36719-2.0312 0.40234-3.4727 2.3672-3.8008-0.22266-2.0234-1.5273-5.3711-3.8828-9.9766-1.375-0.042969-2.75-0.011719-4.1328 0.125-0.98438 1.1328-1.9609 2.3281-2.957 3.5586-2.668 3.2773-5.6914 7-9.7617 10.477-0.12891 0.11328-0.29297 0.17969-0.46484 0.19141-2.1797 0.16406-7.0312 0.51953-7.3516-1.0938-0.46094-2.3047 1.1797-3.8398 4.0977-3.5664 6.6172-11.102 7.7344-15.02 6.5703-18.586-2.2578 1.293-4.5469 1.1914-6.1484-1.0625-0.27344 0.046876-0.93359 0.26953-2.2891 1.2188-0.70312 0.48047-1.543 0.39453-1.9375 0.26563-0.78125-0.26172-1.4375-0.95313-2-2.1211-1.1367-1.2695-1.4961-2.7188-1.0469-4.2031 0.050782-0.17578 0.16406-0.33203 0.31641-0.4375 1.5469-1.0547 2.6484-2.1992 3.3672-3.5078 0.88672-1.6133 2.375-2.8828 4.4219-3.7734 0.074219-0.99609 0.53516-1.6836 1.3047-1.875 1.125-0.27344 1.957 0.1875 2.418 0.79688 2.1719 0.085937 4.0312 0.37891 5.6758 0.64844 1.4844 0.23828 2.7656 0.45312 3.7773 0.39453 4.5039-0.24219 8.1016 1.7266 10.699 1.3398 13.562-2.0234 24.09-2.1055 33.133-0.26953 4.7852 0.97656 7.2539 3.1992 13.211 8.5664 0.97656 0.875 2.082 1.875 3.2969 2.9492 1.0156 0.90625 2.0312 1.2148 3.0117 0.92578 1.6055-0.47656 2.9258-2.4492 3.3984-4.1562 0.54688-1.9727 1.7969-2.3828 2.6953-2.1367 1.0586 0.29688 1.9219 1.5703 1.5312 3.0156z" fill-rule="evenodd"/>
<text x="0.0" y="117.5" font-size="5.0" font-weight="bold" font-family="Arbeit Regular, Helvetica, Arial-Unicode, Arial, Sans-serif" fill="#000000">Created by Logisstudio</text><text x="0.0" y="122.5" font-size="5.0" font-weight="bold" font-family="Arbeit Regular, Helvetica, Arial-Unicode, Arial, Sans-serif" fill="#000000">from Noun Project</text></svg>